<?xml version="1.0" encoding="utf-8"?>
<svg width="139px" height="20px" viewbox="0 0 139 20" version="1.1" xmlns:xlink="http://www.w3.org/1999/xlink" xmlns="http://www.w3.org/2000/svg">
  <defs>
    <linearGradient x1="0.72195" y1="0" x2="0.17503" y2="1" id="gradient_1">
      <stop offset="0" stop-color="#33D35E" />
      <stop offset="1" stop-color="#2AB6D9" />
    </linearGradient>
    <path d="M0 0L139 0L139 20L0 20L0 0Z" id="path_1" />
    <clipPath id="mask_1">
      <use xlink:href="#path_1" />
    </clipPath>
  </defs>
  <g id="logo-copy">
    <path d="M0 0L139 0L139 20L0 20L0 0Z" id="Background" fill="none" fill-rule="evenodd" stroke="none" />
    <g clip-path="url(#mask_1)">
      <g id="Group">
        <path d="M6.175 15.847C9.027 15.847 11.327 14.225 12.127 11.631L8.23 11.631C7.854 12.296 7.09 12.697 6.175 12.697C4.938 12.697 4.11 12.023 3.855 10.719L12.295 10.719C12.346 10.367 12.376 10.025 12.376 9.682C12.376 6.347 9.839 3.732 6.175 3.732C2.607 3.732 0 6.296 0 9.781C0 13.254 2.628 15.847 6.175 15.847L6.175 15.847ZM8.519 8.55L3.923 8.55C4.24 7.421 5.033 6.801 6.175 6.801C7.356 6.801 8.175 7.414 8.519 8.551L8.519 8.55ZM19.465 15.846C20.785 15.846 21.965 15.412 22.895 14.658L23.231 15.462L26.258 15.462L26.258 4.093L23.339 4.093L22.939 4.973C21.999 4.198 20.804 3.751 19.465 3.751C15.989 3.751 13.504 6.256 13.504 9.777C13.504 13.31 15.989 15.847 19.465 15.847L19.465 15.846ZM19.989 12.379C18.522 12.379 17.444 11.271 17.444 9.786C17.444 8.311 18.513 7.203 19.989 7.203C21.455 7.203 22.533 8.311 22.533 9.786C22.533 11.271 21.455 12.379 19.989 12.379L19.989 12.379ZM33.112 15.846C36.132 15.846 38.137 14.292 38.137 11.916C38.137 9.033 35.75 8.66 33.954 8.341C32.874 8.148 32.004 7.997 32.004 7.351C32.004 6.824 32.426 6.513 33.054 6.513C33.764 6.513 34.251 6.85 34.251 7.576L37.918 7.576C37.874 5.273 35.998 3.733 33.102 3.733C30.19 3.733 28.248 5.203 28.248 7.483C28.248 10.24 30.585 10.772 32.348 11.057C33.44 11.238 34.3 11.425 34.3 12.081C34.3 12.668 33.757 12.961 33.184 12.961C32.442 12.961 31.864 12.578 31.864 11.747L28.094 11.747C28.13 14.21 30.013 15.847 33.112 15.847L33.112 15.846ZM41.212 19.704C44.148 19.704 45.556 18.447 47.089 14.968L51.853 4.105L47.647 4.105L45.398 10.368L42.986 4.105L38.731 4.105L43.429 14.535C42.899 15.949 42.446 16.339 40.949 16.339L39.871 16.339L39.871 19.704L41.212 19.704L41.212 19.704ZM59.716 15.846C63.216 15.846 65.689 13.331 65.689 9.798C65.689 6.265 63.217 3.75 59.716 3.75C58.7196 3.74223 57.7409 4.01383 56.891 4.534L56.891 0L53.021 0L53.021 15.474L55.918 15.474L56.288 14.63C57.211 15.401 58.39 15.846 59.716 15.846L59.716 15.846ZM59.193 12.379C57.726 12.379 56.648 11.271 56.648 9.799C56.648 8.313 57.726 7.205 59.193 7.205C60.659 7.205 61.737 8.313 61.737 9.798C61.737 11.271 60.65 12.378 59.193 12.378L59.193 12.379ZM72.791 15.846C74.111 15.846 75.291 15.412 76.221 14.658L76.557 15.462L79.584 15.462L79.584 4.093L76.666 4.093L76.265 4.973C75.326 4.198 74.13 3.751 72.791 3.751C69.315 3.751 66.831 6.256 66.831 9.777C66.831 13.31 69.315 15.847 72.791 15.847L72.791 15.846ZM73.315 12.379C71.848 12.379 70.77 11.271 70.77 9.786C70.77 8.311 71.84 7.203 73.315 7.203C74.782 7.203 75.86 8.311 75.86 9.786C75.86 11.271 74.782 12.379 73.315 12.379L73.315 12.379ZM85.968 15.474L85.968 9.403C85.968 7.956 86.67 7.103 87.891 7.103C88.877 7.103 89.374 7.76 89.374 9.083L89.374 15.473L93.289 15.473L93.289 8.543C93.289 5.646 91.556 3.77 88.916 3.77C87.446 3.77 86.183 4.335 85.336 5.278L84.799 4.106L82.052 4.106L82.052 15.475L85.968 15.475L85.968 15.474ZM99.716 15.474L99.716 10.666L102.564 15.474L107.18 15.474L103.278 9.524L106.821 4.105L102.424 4.105L99.716 8.559L99.716 0L95.8 0L95.8 15.474L99.716 15.474L99.716 15.474Z" transform="translate(31.579002 0)" id="Shape" fill="#FFFFFF" fill-rule="evenodd" stroke="none" />
        <g id="Group">
          <path d="M10.802 0L0 19.704L5.986 19.704L16.789 0L10.802 0Z" id="Shape" fill="url(#gradient_1)" fill-rule="evenodd" stroke="none" />
          <path d="M10.803 0L0 19.704L5.986 19.704L16.789 0L10.803 0Z" transform="translate(7.368 0)" id="Shape" fill="url(#gradient_1)" fill-opacity="0.5" fill-rule="evenodd" stroke="none" />
          <path d="M10.802 0L0 19.704L5.986 19.704L16.788 0L10.802 0Z" transform="translate(14.737 0)" id="Shape" fill="url(#gradient_1)" fill-opacity="0.15" fill-rule="evenodd" stroke="none" />
        </g>
      </g>
    </g>
  </g>
</svg>